<?xml version="1.0" standalone="no"?><!DOCTYPE svg PUBLIC "-//W3C//DTD SVG 1.1//EN" "http://www.w3.org/Graphics/SVG/1.1/DTD/svg11.dtd"><svg t="1588474208096" class="icon" viewBox="0 0 1024 1024" version="1.1" xmlns="http://www.w3.org/2000/svg" p-id="581" xmlns:xlink="http://www.w3.org/1999/xlink" width="200" height="200"><defs><style type="text/css"></style></defs><path d="M766.116257 314.857574c-30.599127-12.266204-39.439453-19.683649-39.439452-33.078343 0-10.719219 8.118784-23.242291 31.008963-23.242291 20.246451 0 35.774022 7.983134 35.912558 8.052401a11.287794 11.287794 0 0 0 5.281683 1.336295 10.664382 10.664382 0 0 0 9.974588-6.831554l5.561641-14.217251c1.936617-5.180667-1.001499-9.69463-4.747742-11.313769-12.465349-5.425991-36.827473-9.625362-37.075683-9.668655-0.392519-0.069268-1.757675-0.360771-1.757675-1.95682l-0.077926-20.62454c0-6.211028-5.18644-11.26759-11.553321-11.26759h-9.977474c-6.361109 0-11.544662 5.053676-11.544663 11.270477l0.025976 21.683762c0 1.662431-1.800967 2.383973-2.459013 2.536939-30.752094 7.325088-49.971071 29.851611-49.971071 58.265911 0 35.42191 29.28015 51.428584 60.895207 63.443691 25.274152 9.922637 35.583535 19.98381 35.583536 34.740775 0 16.058625-14.601112 27.274265-35.52004 27.274265-17.862479 0-42.037002-11.322428-42.276553-11.437874a11.293566 11.293566 0 0 0-4.871848-1.102516 10.794259 10.794259 0 0 0-10.208367 7.091309l-5.310545 14.378877c-1.887552 5.368268 1.018816 9.726378 4.739084 11.665881 14.846436 7.732038 43.575328 12.263318 44.853899 12.462463 0.343454 0.049065 2.09247 0.663818 2.09247 2.262754v21.588519c0 6.211028 5.18644 11.26759 11.556207 11.26759h10.309383c6.372654 0 11.559093-5.053676 11.559093-11.26759v-22.719896c0-2.124218 1.567188-2.311819 1.890439-2.389745 32.760865-7.359722 52.940935-31.329327 52.940935-61.426262-0.008658-30.913719-17.175571-50.888871-57.394289-66.777213z" p-id="582" fill="#212529"></path><path d="M753.235301 64.964701c-149.549555 0-270.774282 121.233385-270.774282 270.774281 0 149.543783 121.224726 270.780054 270.774282 270.780054 149.543783 0 270.771395-121.236271 270.771395-270.780054 0-149.540897-121.227612-270.774282-270.771395-270.774281z m0 478.800437c-114.892479 0-208.02327-93.139449-208.02327-208.023269s93.130791-208.020384 208.02327-208.020384c114.886707 0 208.014611 93.136563 208.014611 208.020384s-93.127904 208.02327-208.014611 208.023269zM968.987722 737.732782c-57.579003 31.779569-136.7725 61.163621-215.749535 73.551043-70.266587 11.01938-202.458742-15.556432-202.458743-46.943483 0-11.893888 115.937271 29.306125 186.068208 10.595114 53.777923-14.347129 46.144015-64.652995 16.892727-71.28829-29.081004-6.600661-199.45713-69.016877-272.231795-71.169957-34.281875-1.013044-118.91868 11.92275-159.873369 18.592679-14.029651 2.282957-22.826684 2.031861-23.704078 15.458303-4.075266 62.3989-12.107465 190.002052-16.485778 256.655159-0.092357 1.408449 1.864463 20.347467 17.49305 7.019155 17.106303-14.586681 41.098998-30.75498 63.290725-25.721507 34.815815 7.899435 336.01894 63.080035 377.565293 53.422924 59.434808-13.816075 227.68383-113.524437 259.942503-144.516082 49.999932-48.045998 11.131941-98.770358-30.749208-75.655058zM214.812455 648.63685l-157.792444-7.77533c-12.182505-0.600322-24.624765 8.58057-27.652353 20.393646L0.676286 921.74604c-3.024702 11.815962 4.473557 21.871363 16.661834 22.341808l174.872772-0.017317c12.191163 0.470445 22.921927-9.094308 23.857045-21.25661l19.204545-250.975186a21.525023 21.525023 0 0 0-20.460027-23.201885zM121.91833 909.560649c-24.096596 0-43.627279-19.533569-43.627279-43.627279 0-24.096596 19.533569-43.627279 43.627279-43.627279s43.627279 19.533569 43.627278 43.627279c0 24.096596-19.530682 43.627279-43.627278 43.627279z" p-id="583" fill="#212529"></path></svg>