<?xml version="1.0" standalone="no"?><!DOCTYPE svg PUBLIC "-//W3C//DTD SVG 1.1//EN" "http://www.w3.org/Graphics/SVG/1.1/DTD/svg11.dtd"><svg t="1614914993190" class="icon" viewBox="0 0 1024 1024" version="1.1" xmlns="http://www.w3.org/2000/svg" p-id="2196" xmlns:xlink="http://www.w3.org/1999/xlink" width="200" height="200"><defs><style type="text/css">@font-face { font-weight: 400; font-style: normal; font-family: Circular-Loom; src: url("https://cdn.loom.com/assets/fonts/circular/CircularXXWeb-Book-cd7d2bcec649b1243839a15d5eb8f0a3.woff2") format("woff2"); }
@font-face { font-weight: 500; font-style: normal; font-family: Circular-Loom; src: url("https://cdn.loom.com/assets/fonts/circular/CircularXXWeb-Medium-d74eac43c78bd5852478998ce63dceb3.woff2") format("woff2"); }
@font-face { font-weight: 700; font-style: normal; font-family: Circular-Loom; src: url("https://cdn.loom.com/assets/fonts/circular/CircularXXWeb-Bold-83b8ceaf77f49c7cffa44107561909e4.woff2") format("woff2"); }
@font-face { font-weight: 900; font-style: normal; font-family: Circular-Loom; src: url("https://cdn.loom.com/assets/fonts/circular/CircularXXWeb-Black-bf067ecb8aa777ceb6df7d72226febca.woff2") format("woff2"); }
</style></defs><path d="M512 96C282.248 96 96 282.25 96 512s186.248 416 416 416c229.75 0 416-186.25 416-416S741.75 96 512 96z m-43.098 769.998c-78.928-9.452-151.956-44.784-209.038-101.864C192.516 696.786 155.428 607.244 155.428 512c0-85.74 30.072-166.848 85.202-231.318 1.42 17.034 4.926 35.296 4.028 48.35-3.28 47.59-7.976 77.374 19.88 117.524 10.852 15.638 13.518 38.056 18.8 56.156 5.166 17.708 25.804 26.996 40.038 37.906 28.718 22.018 56.192 47.61 86.644 66.988 20.098 12.79 32.652 19.152 26.766 43.678-4.734 19.724-6.056 31.874-16.26 49.446-3.114 5.362 11.754 39.836 16.702 44.784 14.996 14.994 29.876 28.75 46.222 42.25 25.342 20.938-2.462 48.144-14.548 78.234z m295.232-101.864c-51.266 51.266-115.398 84.972-185.112 98.162 9.88-24.432 27.472-46.14 43.79-58.724 14.194-10.952 31.972-32.018 39.386-48.704 7.408-16.664 17.222-31.11 27.154-46.434 14.13-21.798-34.838-54.672-50.706-61.562-35.708-15.502-62.588-36.42-94.322-58.75-22.61-15.908-68.514 8.308-94.04-2.834-34.962-15.266-63.766-41.792-94.156-64.678-31.36-23.618-29.844-51.152-29.844-85.994 24.564 0.906 59.508-6.798 75.816 12.956 5.146 6.234 22.84 34.084 34.684 24.188 9.676-8.086-7.17-40.498-10.424-48.118-10.01-23.43 22.808-32.568 39.606-48.456 21.92-20.728 68.94-53.236 65.224-68.094s-47.048-56.954-72.498-50.386c-3.814 0.984-37.394 36.194-43.882 41.718 0.172-11.492 0.344-22.982 0.52-34.474 0.11-7.256-13.536-14.704-12.902-19.384 1.6-11.828 34.524-33.294 42.714-42.714-5.738-3.586-25.318-20.404-31.244-17.936-14.348 5.98-30.552 10.1-44.9 16.078 0-4.976-0.604-9.65-1.324-14.266a353.17 353.17 0 0 1 90.62-26.304l28.168 11.32 19.888 23.602 19.848 20.466 17.35 5.59 27.558-25.99L564 175.858V159.18c54.5 7.916 105.968 28.248 151.044 59.6-8.064 0.722-16.926 1.908-26.924 3.18-4.13-2.44-9.428-3.548-13.93-5.246 13.062 28.084 26.686 55.78 40.528 83.492 14.786 29.602 47.586 61.354 53.346 92.602 6.788 36.832 2.078 70.288 5.792 113.622 3.576 41.73 47.048 89.144 47.048 89.144s20.074 6.838 36.768 4.456c-15.562 61.566-47.466 118.028-93.538 164.104z" p-id="2197" fill="#515151"></path></svg>