<?xml version="1.0" standalone="no"?><!DOCTYPE svg PUBLIC "-//W3C//DTD SVG 1.1//EN" "http://www.w3.org/Graphics/SVG/1.1/DTD/svg11.dtd"><svg t="1588736405654" class="icon" viewBox="0 0 1024 1024" version="1.1" xmlns="http://www.w3.org/2000/svg" p-id="2145" xmlns:xlink="http://www.w3.org/1999/xlink" width="200" height="200"><defs><style type="text/css"></style></defs><path d="M528.936186 271.549061m-234.809307 0a41.6 41.6 0 1 0 469.618613 0 41.6 41.6 0 1 0-469.618613 0Z" p-id="2146" fill="#212529"></path><path d="M947.190263 738.345447C938.723582 427.336005 730.443211 465.718295 730.443211 465.718295c-51.928981 42.903499-97.649063 81.280145-197.555907 81.280145-129.822453 0-211.102598-82.973481-211.102598-82.973481C110.682108 456.122723 107.859881 738.909893 107.859881 738.909893l0 124.177999c3.945474 65.475672 49.6712 101.600181 112.88909 101.600181l609.601085 0c76.200136 0 110.631308-45.155636 117.404653-101.600181C951.705827 767.696611 947.190263 738.345447 947.190263 738.345447z" p-id="2147" fill="#212529"></path><path d="M528.936186 546.99844" p-id="2148" fill="#212529"></path></svg>